<svg width="40" height="40" viewBox="0 0 40 40" fill="none" xmlns="http://www.w3.org/2000/svg">
<path d="M20.0001 20.8333C18.453 20.8333 16.9693 21.4478 15.8753 22.5418C14.7813 23.6358 14.1667 25.1195 14.1667 26.6666C14.1667 28.2137 14.7813 29.6974 15.8753 30.7914C16.9693 31.8853 18.453 32.4999 20.0001 32.4999C21.5472 32.4999 23.0309 31.8853 24.1249 30.7914C25.2188 29.6974 25.8334 28.2137 25.8334 26.6666C25.8334 25.1195 25.2188 23.6358 24.1249 22.5418C23.0309 21.4478 21.5472 20.8333 20.0001 20.8333ZM17.5001 26.6666C17.5001 26.0035 17.7635 25.3677 18.2323 24.8988C18.7012 24.43 19.337 24.1666 20.0001 24.1666C20.6631 24.1666 21.299 24.43 21.7678 24.8988C22.2367 25.3677 22.5001 26.0035 22.5001 26.6666C22.5001 27.3296 22.2367 27.9655 21.7678 28.4344C21.299 28.9032 20.6631 29.1666 20.0001 29.1666C19.337 29.1666 18.7012 28.9032 18.2323 28.4344C17.7635 27.9655 17.5001 27.3296 17.5001 26.6666Z" fill="white"/>
<path d="M29.21 8.52672L23.9117 1.09839L4.43 16.6617L3.35 16.6501V16.6667H2.5V36.6667H37.5V16.6667H35.8967L32.7067 7.33506L29.21 8.52672ZM32.375 16.6667H15.6617L28.11 12.4234L30.6467 11.6117L32.375 16.6667ZM25.9167 9.65005L13.0667 14.0301L23.2433 5.90006L25.9167 9.65005ZM5.83333 30.2817V23.0484C6.53696 22.8001 7.17608 22.3974 7.70384 21.8699C8.2316 21.3424 8.63462 20.7035 8.88333 20.0001H31.1167C31.3652 20.7039 31.7681 21.3431 32.2959 21.8709C32.8236 22.3986 33.4629 22.8015 34.1667 23.0501V30.2834C33.4629 30.5319 32.8236 30.9348 32.2959 31.4626C31.7681 31.9904 31.3652 32.6296 31.1167 33.3334H8.88667C8.63697 32.6295 8.23327 31.9903 7.70503 31.4623C7.17679 30.9344 6.53734 30.531 5.83333 30.2817Z" fill="white"/>
</svg>
