<svg width="41" height="37" viewBox="0 0 41 37" fill="none" xmlns="http://www.w3.org/2000/svg">
<path d="M35.9271 21.3378H27.7582C26.6754 21.3368 25.6363 21.7213 24.8688 22.4068C24.1014 23.0924 23.6682 24.0231 23.6643 24.9949V32.3259C23.6637 32.8086 23.7692 33.2866 23.9748 33.7325C24.1803 34.1785 24.4819 34.5837 24.8621 34.925C25.2424 35.2663 25.6939 35.5369 26.1909 35.7213C26.6878 35.9058 27.2204 36.0005 27.7582 36H35.9271C37.0096 35.996 38.0462 35.607 38.8096 34.9183C39.573 34.2296 40.0011 33.2974 40 32.3259V24.9949C40.0006 24.5147 39.8956 24.0392 39.6911 23.5955C39.4866 23.1518 39.1866 22.7487 38.8083 22.4092C38.43 22.0697 37.9808 21.8005 37.4864 21.6169C36.992 21.4334 36.4621 21.3392 35.9271 21.3397M13.2418 21.3378H5.07287C3.99055 21.3433 2.95465 21.733 2.1915 22.4218C1.42835 23.1106 0.999985 24.0425 1 25.0138V32.3449C0.999448 32.825 1.10442 33.3005 1.3089 33.7442C1.51338 34.1879 1.81337 34.591 2.19168 34.9305C2.56999 35.2701 3.0192 35.5393 3.51359 35.7228C4.00799 35.9063 4.53785 36.0005 5.07287 36H13.2418C14.3243 36.001 15.363 35.6168 16.1304 34.9317C16.8978 34.2465 17.3313 33.3163 17.3357 32.3449V25.0138C17.3363 24.5312 17.2308 24.0532 17.0252 23.6072C16.8197 23.1612 16.5181 22.756 16.1379 22.4147C15.7576 22.0735 15.3061 21.8028 14.8091 21.6184C14.3122 21.4339 13.7796 21.3392 13.2418 21.3397M13.2418 1H5.07287C4.53785 0.999504 4.00799 1.09371 3.51359 1.27722C3.0192 1.46073 2.56999 1.72995 2.19168 2.06946C1.81337 2.40897 1.51338 2.8121 1.3089 3.25579C1.10442 3.69947 0.999448 4.175 1 4.65514V11.9862C0.998877 12.9577 1.42695 13.8899 2.1904 14.5786C2.95385 15.2673 3.9904 15.6563 5.07287 15.6603H13.2418C13.7796 15.6608 14.3122 15.5661 14.8091 15.3816C15.3061 15.1972 15.7576 14.9265 16.1379 14.5853C16.5181 14.244 16.8197 13.8388 17.0252 13.3928C17.2308 12.9468 17.3363 12.4688 17.3357 11.9862V4.65514C17.3313 3.68369 16.8978 2.75345 16.1304 2.06831C15.363 1.38316 14.3243 0.998992 13.2418 1ZM35.9271 1H27.7582C26.6757 0.998992 25.637 1.38316 24.8696 2.06831C24.1022 2.75345 23.6687 3.68369 23.6643 4.65514V11.9862C23.6648 12.9605 24.0963 13.8947 24.864 14.5836C25.6316 15.2725 26.6726 15.6598 27.7582 15.6603H35.9271C37.0096 15.6563 38.0462 15.2673 38.8096 14.5786C39.573 13.8899 40.0011 12.9577 40 11.9862V4.65514C40.0006 4.175 39.8956 3.69947 39.6911 3.25579C39.4866 2.8121 39.1866 2.40897 38.8083 2.06946C38.43 1.72995 37.9808 1.46073 37.4864 1.27722C36.992 1.09371 36.4621 0.999504 35.9271 1Z" stroke="#F8F8F8" stroke-width="1.5" stroke-linecap="round" stroke-linejoin="round"/>
</svg>
